<?xml version="1.0" encoding="utf-8"?>
<!-- Generator: Adobe Illustrator 17.1.0, SVG Export Plug-In . SVG Version: 6.00 Build 0)  -->
<!DOCTYPE svg PUBLIC "-//W3C//DTD SVG 1.0//EN" "http://www.w3.org/TR/2001/REC-SVG-20010904/DTD/svg10.dtd">
<svg version="1.0" id="Layer_1" xmlns="http://www.w3.org/2000/svg" xmlns:xlink="http://www.w3.org/1999/xlink" x="0px" y="0px"
	 width="89px" height="34px" viewBox="0 0 89 34" enable-background="new 0 0 89 34" xml:space="preserve">
<g>
	<path fill="#FFFFFF" d="M57.5,9.6v15.7c0,1.1,1.6,2,3.5,2h7.1v-3H61v-5.2h5.3v-3.5H61v-5.5h7.1V7.5H61C59,7.5,57.5,8.4,57.5,9.6z"
		/>
	<path fill="#FFFFFF" d="M78.5,13.2c0,1.7,0.3,5.3,0.5,6.9h-0.1c-1-4.4-2.7-8.5-3.9-12.7h-3.2v19.8h3.4v-5.7c0-1.8-0.3-5.3-0.5-6.9
		h0.1c1,4.4,2.7,8.5,3.9,12.7h3.2V7.5h-3.4V13.2z"/>
	<path fill="#FFFFFF" d="M50.6,7.4H47V11h3.5v12.5h-3.7v-7.8c-0.2,0.5-0.4,0.9-0.8,1.3c-0.6,0.6-1.3,1.1-2.2,1.4v8.8h6.7
		c1.9,0,3.4-0.9,3.4-2.1V9.5C53.9,8.3,52.4,7.4,50.6,7.4z"/>
	<path fill="#FFFFFF" d="M88.9,5.8c0-3.2-2.6-5.7-5.8-5.7H5.8C2.6,0,0,2.6,0,5.8l0.1,22.4c0,3.2,2.6,5.7,5.8,5.7h77.4
		c3.2,0,5.8-2.6,5.8-5.7L88.9,5.8z M85.9,25.9c0,2.7-2.2,4.8-4.8,4.8H8.2c-1.1,0-2.2-0.4-3-1C4.1,29,3.4,28,3.4,26.8V8.2
		c0-2.3,2.5-4.1,5.6-4.1c3.1,0,5.6,1.8,5.6,4.1v7.5h-3.7V7.4H7.3v19c0.9,0,2.1,0.1,3.5,0.2V19h3.7v7.8c0,0.1,0,0.2,0,0.3
		c0.8,0.1,1.5,0.1,2.3,0.2H18V4h3.8v23.3h4V7.3h-2V4.1h8.1v3.2h-2v1.6c0,0,0,0,0,0v18.3h6.5c1.8,0,3.2-0.9,3.2-2.1v-6.7
		c-1.1-0.3-1.8-0.8-2.4-1.5c-0.4-0.4-0.6-0.8-0.8-1.3v7.8h-3.6V11h3.4V7.4h-0.1V4h0.1h3.6h0.1v9.4c0,0-0.2,1.5,1.7,1.5
		c1.8,0,1.5-1.5,1.5-1.5V4h0.1c0,0,0,0,0,0l37.9,0c2.7,0,4.8,2.1,4.8,4.8V25.9z"/>
</g>
</svg>
